<?xml version="1.0" standalone="no"?>
<!DOCTYPE svg PUBLIC "-//W3C//DTD SVG 20010904//EN"
 "http://www.w3.org/TR/2001/REC-SVG-20010904/DTD/svg10.dtd">
<svg version="1.0" xmlns="http://www.w3.org/2000/svg"
 width="20" height="20" viewBox="0 0 32.000000 32.000000"
 preserveAspectRatio="xMidYMid meet">

<g transform="translate(0.000000,32.000000) scale(0.100000,-0.100000)"
fill="currentColor" stroke="none">
<path d="M10 261 c-14 -28 -13 -194 2 -209 8 -8 56 -12 149 -12 116 0 139 3
150 17 12 15 12 16 -1 8 -22 -14 -273 -6 -282 8 -9 15 -10 113 -2 156 l7 32
131 -3 131 -3 3 -83 c2 -49 7 -80 12 -77 15 9 12 159 -2 173 -8 8 -56 12 -150
12 -126 0 -138 -2 -148 -19z"/>
<path d="M50 231 c0 -5 15 -22 34 -39 l34 -29 -36 -36 c-48 -48 -35 -58 15
-13 28 25 43 32 50 25 8 -8 17 -8 28 -1 14 7 24 2 47 -24 29 -33 48 -43 48
-25 0 5 -14 24 -31 42 l-31 34 38 32 c23 21 31 33 22 33 -9 0 -35 -16 -58 -35
-23 -19 -44 -35 -47 -35 -3 0 -27 18 -53 40 -49 41 -60 47 -60 31z"/>
</g>
</svg>
