<svg version="1.1" xmlns="http://www.w3.org/2000/svg" viewBox="0 0 582 20" width="582" height="20">
  <!-- svg-source:excalidraw -->
  
  <defs>
    <style class="style-fonts">
      @font-face {
        font-family: "Virgil";
        src: url("https://excalidraw.com/Virgil.woff2");
      }
      @font-face {
        font-family: "Cascadia";
        src: url("https://excalidraw.com/Cascadia.woff2");
      }
      @font-face {
        font-family: "Assistant";
        src: url("https://excalidraw.com/Assistant-Regular.woff2");
      }
    </style>
    
  </defs>
  <g transform="translate(15 19) rotate(0 278.5 -2)" stroke="none"><path fill="#cbf428" d="M 0.56,-10.25 Q 0.56,-10.25 5.74,-10.00 10.92,-9.75 17.07,-9.47 23.23,-9.20 29.00,-10.00 34.77,-10.79 40.67,-11.54 46.57,-12.29 50.91,-12.59 55.25,-12.90 60.06,-13.06 64.86,-13.23 69.55,-13.37 74.24,-13.51 78.81,-13.63 83.39,-13.75 87.94,-13.79 92.48,-13.83 96.73,-14.26 100.98,-14.70 106.00,-14.88 111.02,-15.06 115.37,-15.14 119.71,-15.22 124.05,-14.82 128.39,-14.42 134.33,-14.37 140.27,-14.32 144.99,-14.31 149.72,-14.30 154.84,-14.27 159.95,-14.25 165.79,-14.20 171.63,-14.15 176.90,-14.13 182.18,-14.12 186.94,-14.12 191.70,-14.13 197.03,-14.50 202.37,-14.87 207.04,-14.98 211.71,-15.08 216.13,-15.12 220.56,-15.15 227.59,-15.55 234.62,-15.96 239.31,-16.05 243.99,-16.15 251.63,-16.00 259.26,-15.85 265.92,-15.78 272.57,-15.72 279.43,-15.64 286.29,-15.56 294.08,-15.44 301.88,-15.31 306.15,-14.96 310.42,-14.62 317.18,-14.42 323.94,-14.23 332.65,-13.92 341.36,-13.62 349.59,-12.82 357.82,-12.01 366.67,-12.09 375.52,-12.16 380.54,-12.15 385.57,-12.13 393.86,-11.68 402.16,-11.24 410.16,-10.95 418.17,-10.67 424.83,-10.92 431.49,-11.18 438.25,-11.31 445.00,-11.43 451.24,-12.03 457.47,-12.64 463.93,-12.97 470.40,-13.31 476.09,-13.80 481.79,-14.30 486.70,-14.67 491.61,-15.04 498.68,-15.58 505.75,-16.12 512.49,-16.47 519.23,-16.82 526.40,-16.66 533.56,-16.50 539.28,-16.65 545.00,-16.81 550.07,-17.46 555.14,-18.11 557.12,-18.09 559.10,-18.07 560.98,-17.42 562.85,-16.77 564.42,-15.55 565.98,-14.33 567.08,-12.68 568.17,-11.03 568.68,-9.11 569.20,-7.19 569.07,-5.21 568.94,-3.24 568.19,-1.40 567.43,0.42 566.13,1.92 564.83,3.42 563.12,4.43 561.41,5.43 559.47,5.84 557.53,6.24 555.56,6.01 553.59,5.77 551.80,4.92 550.01,4.07 548.58,2.69 547.16,1.31 546.25,-0.44 545.34,-2.20 545.04,-4.16 544.74,-6.12 545.08,-8.08 545.42,-10.03 546.37,-11.77 547.31,-13.52 548.77,-14.86 550.22,-16.21 552.03,-17.03 553.84,-17.84 555.81,-18.04 557.79,-18.23 559.72,-17.78 561.65,-17.34 563.34,-16.29 565.03,-15.25 566.30,-13.73 567.57,-12.20 568.28,-10.35 569.00,-8.50 569.08,-6.52 569.17,-4.54 568.62,-2.64 568.07,-0.73 566.94,0.89 565.81,2.52 564.21,3.70 562.62,4.89 560.74,5.50 558.85,6.11 558.85,6.11 558.85,6.11 551.83,6.43 544.82,6.75 538.77,6.44 532.72,6.14 526.00,5.49 519.27,4.84 512.60,4.53 505.93,4.21 499.10,3.88 492.28,3.55 487.65,3.52 483.02,3.49 477.09,3.80 471.15,4.11 465.14,4.31 459.14,4.52 452.26,5.19 445.38,5.86 438.87,6.02 432.36,6.19 425.40,6.61 418.44,7.03 410.63,7.56 402.82,8.09 394.19,9.11 385.57,10.13 380.54,10.14 375.51,10.16 366.66,10.08 357.81,10.00 349.57,10.80 341.32,11.59 332.44,11.83 323.56,12.07 315.98,11.92 308.41,11.77 301.00,11.62 293.59,11.48 286.08,11.59 278.57,11.70 272.58,11.72 266.60,11.74 259.08,11.89 251.57,12.04 243.80,12.18 236.02,12.32 230.73,12.74 225.44,13.16 220.73,13.16 216.02,13.16 209.84,13.20 203.65,13.23 197.68,13.68 191.71,14.13 186.94,14.12 182.18,14.12 176.90,14.13 171.63,14.15 165.79,14.20 159.95,14.25 154.82,14.27 149.70,14.29 144.93,14.29 140.16,14.29 135.48,14.25 130.80,14.22 126.38,13.95 121.96,13.68 116.60,13.38 111.23,13.08 106.88,13.07 102.53,13.06 97.52,13.45 92.51,13.83 86.18,13.75 79.86,13.67 74.41,13.50 68.97,13.33 63.24,13.17 57.51,13.02 53.04,12.85 48.58,12.68 44.13,12.98 39.67,13.27 35.23,13.45 30.78,13.63 26.21,13.16 21.64,12.68 15.71,11.79 9.77,10.90 4.60,10.57 -0.56,10.25 -1.78,10.03 -3.00,9.81 -4.13,9.31 -5.26,8.81 -6.24,8.05 -7.22,7.29 -7.99,6.32 -8.76,5.35 -9.27,4.22 -9.78,3.10 -10.01,1.88 -10.24,0.66 -10.17,-0.56 -10.11,-1.80 -9.74,-2.98 -9.38,-4.16 -8.74,-5.23 -8.11,-6.29 -7.24,-7.17 -6.37,-8.05 -5.31,-8.69 -4.25,-9.34 -3.07,-9.71 -1.89,-10.09 -0.66,-10.17 0.57,-10.25 0.57,-10.25 L 0.56,-10.25 Z"></path></g><g transform="translate(10 17) rotate(0 280.5 -2)" stroke="none"><path fill="#90f128" d="M 0,-10.50 Q 0,-10.50 6.61,-10.29 13.22,-10.09 17.47,-10.23 21.72,-10.37 27.20,-10.69 32.68,-11.01 37.52,-11.28 42.36,-11.55 48.40,-12.14 54.44,-12.73 61.69,-13.31 68.94,-13.89 75.89,-14.09 82.84,-14.29 87.35,-14.00 91.86,-13.70 96.32,-13.26 100.78,-12.81 105.75,-12.25 110.72,-11.69 115.12,-11.47 119.53,-11.24 123.98,-11.13 128.43,-11.02 133.28,-10.66 138.13,-10.31 146.28,-10.14 154.42,-9.97 160.07,-9.52 165.71,-9.08 174.89,-8.83 184.07,-8.57 189.79,-8.40 195.52,-8.23 201.90,-8.43 208.28,-8.62 214.32,-9.39 220.35,-10.16 226.32,-10.32 232.29,-10.48 238.11,-10.60 243.94,-10.72 248.67,-10.84 253.41,-10.96 259.07,-11.36 264.74,-11.76 270.97,-12.01 277.21,-12.27 283.50,-12.70 289.80,-13.13 296.11,-13.23 302.42,-13.33 308.19,-13.38 313.96,-13.43 319.80,-13.45 325.64,-13.47 332.02,-13.06 338.40,-12.64 344.05,-12.59 349.71,-12.53 355.36,-12.54 361.01,-12.55 366.23,-12.97 371.44,-13.40 377.38,-13.49 383.31,-13.58 390.11,-13.54 396.91,-13.50 404.45,-13.40 411.99,-13.31 416.30,-13.22 420.62,-13.13 425.98,-12.67 431.35,-12.21 439.04,-12.45 446.74,-12.69 450.97,-13.15 455.21,-13.62 464.35,-14.51 473.49,-15.41 477.81,-15.87 482.13,-16.33 487.36,-17.21 492.59,-18.09 497.14,-18.79 501.69,-19.49 506.53,-19.72 511.37,-19.96 517.50,-20.01 523.62,-20.06 529.19,-19.83 534.76,-19.59 540.29,-19.39 545.82,-19.19 551.88,-19.30 557.93,-19.40 561.31,-18.68 564.70,-17.96 566.51,-17.05 568.32,-16.15 569.75,-14.71 571.18,-13.28 572.08,-11.46 572.97,-9.64 573.24,-7.63 573.51,-5.63 573.13,-3.64 572.74,-1.65 571.74,0.10 570.74,1.86 569.22,3.21 567.71,4.56 565.85,5.36 563.99,6.15 561.97,6.31 559.95,6.47 557.98,5.98 556.02,5.49 554.31,4.39 552.61,3.30 551.34,1.71 550.08,0.13 549.39,-1.76 548.69,-3.67 548.64,-5.69 548.59,-7.72 549.19,-9.65 549.79,-11.59 550.98,-13.23 552.16,-14.87 553.81,-16.05 555.46,-17.23 557.40,-17.82 559.34,-18.41 561.36,-18.35 563.39,-18.29 565.29,-17.58 567.19,-16.88 568.76,-15.61 570.34,-14.33 571.42,-12.62 572.51,-10.91 572.99,-8.95 573.48,-6.98 573.31,-4.96 573.14,-2.94 572.33,-1.08 571.53,0.77 570.17,2.27 568.81,3.78 567.05,4.77 565.28,5.76 563.29,6.14 561.30,6.51 559.29,6.23 557.29,5.96 557.29,5.96 557.29,5.96 557.45,5.68 557.60,5.40 551.71,5.30 545.83,5.20 540.30,5.40 534.77,5.60 525.62,5.86 516.46,6.12 511.86,6.05 507.25,5.98 501.16,6.35 495.06,6.72 489.97,7.27 484.89,7.82 480.43,8.35 475.98,8.89 467.07,10.01 458.16,11.12 453.86,11.68 449.55,12.23 444.04,12.88 438.52,13.53 434.20,13.45 429.87,13.36 425.25,13.24 420.62,13.13 416.31,13.22 411.99,13.31 404.47,13.41 396.94,13.52 390.22,13.58 383.50,13.64 378.09,13.70 372.68,13.76 366.83,14.15 360.98,14.54 355.24,14.50 349.51,14.47 343.37,14.38 337.24,14.28 331.44,13.88 325.63,13.47 319.82,13.46 314.00,13.44 308.31,13.42 302.63,13.40 296.77,13.46 290.92,13.52 284.29,13.97 277.66,14.42 272.68,14.51 267.70,14.61 262.45,14.84 257.20,15.08 252.89,14.97 248.58,14.85 243.53,14.73 238.48,14.61 232.30,14.52 226.12,14.42 221.47,14.31 216.82,14.20 212.55,14.40 208.28,14.61 201.85,14.38 195.43,14.16 189.63,14.28 183.83,14.41 174.10,14.28 164.36,14.16 159.24,13.98 154.12,13.80 149.43,13.76 144.75,13.72 136.37,13.25 127.99,12.78 123.27,12.72 118.54,12.66 113.52,12.50 108.51,12.33 103.49,11.97 98.48,11.61 90.75,10.99 83.02,10.37 76.44,10.34 69.86,10.32 62.57,10.71 55.28,11.09 48.83,11.32 42.37,11.55 37.53,11.28 32.68,11.01 27.20,10.69 21.72,10.37 17.47,10.23 13.22,10.09 6.61,10.29 0,10.50 -1.25,10.35 -2.51,10.19 -3.69,9.74 -4.88,9.30 -5.92,8.58 -6.96,7.86 -7.80,6.91 -8.64,5.96 -9.23,4.84 -9.82,3.72 -10.12,2.49 -10.42,1.26 -10.42,-0.00 -10.42,-1.26 -10.12,-2.49 -9.82,-3.72 -9.23,-4.84 -8.64,-5.96 -7.80,-6.91 -6.96,-7.86 -5.92,-8.58 -4.88,-9.30 -3.69,-9.74 -2.51,-10.19 -1.25,-10.35 0.00,-10.50 0.00,-10.50 L 0,-10.50 Z"></path></g></svg>