<?xml version="1.0" standalone="no"?>
<!DOCTYPE svg PUBLIC "-//W3C//DTD SVG 20010904//EN"
 "http://www.w3.org/TR/2001/REC-SVG-20010904/DTD/svg10.dtd">
<svg version="1.0" xmlns="http://www.w3.org/2000/svg"
 width="20" height="20" viewBox="0 0 32.000000 32.000000"
 preserveAspectRatio="xMidYMid meet">

<g transform="translate(0.000000,32.000000) scale(0.100000,-0.100000)"
fill="#000000" stroke="none">
<path d="M27 292 c-15 -15 -27 -34 -27 -41 0 -90 124 -224 226 -246 25 -5 38
-1 63 20 38 32 39 45 5 84 -29 34 -58 39 -86 15 -16 -16 -20 -14 -59 25 -40
40 -41 42 -25 60 20 22 18 62 -4 69 -13 5 -13 3 -1 -12 12 -14 11 -20 -8 -39
-28 -31 -27 -36 14 -85 43 -50 70 -60 96 -36 19 17 21 16 50 -12 l30 -29 -26
-23 c-27 -23 -34 -23 -92 -1 -55 20 -134 114 -153 181 -8 27 -6 36 12 55 16
17 25 20 39 12 13 -6 19 -6 19 0 0 9 -31 31 -42 31 -3 0 -16 -13 -31 -28z"/>
</g>
</svg>
